<svg width="364" height="301" xmlns="http://www.w3.org/2000/svg"><g stroke="#3F54A3" fill="none" fill-rule="evenodd"><path stroke-width="3" stroke-linecap="round" d="M1.5 236.5h361v12H1.5z"/><g stroke-linecap="round" stroke-width="3"><path d="M10.5 248.5h27v8h-27zM16.5 299v-42.5h15V299"/></g><g stroke-linecap="round" stroke-width="3"><path d="M326.5 248.5h27v8h-27zM332.5 299v-42.5h15V299"/></g><path d="M261.643 236.606s-33.73-39.106-2.878-108.106H290M287.117 236.391s33.659-38.451 2.805-108.106M277.014 128.284s22.67-71.456-42.689-96.117M267.771 128.284s-3.547-55.006 41.219-55.006M273.359 127.98s17.358-62.91-53.902-77.078" stroke-width="3" stroke-linecap="round"/><g fill="#FFF" fill-rule="nonzero" stroke-linecap="round" stroke-width="3"><path d="M99.5 114.5h163v113h-163z"/><path d="M105.5 121.5h151v100h-151zM92.5 227.5h177v9h-177z"/><path d="M165.5 227.5h32v5h-32z"/></g><path stroke-width="3" stroke-linecap="round" d="M42.5 62.5h38v37h-38zM126.984 95.982L87.5 99.316V62.5h37.4z"/><path d="M105 128.5h150M144.5 128v94M128.5 121.5h31v7h-31z"/><path d="M148 135.5h2M152 135.5h2M148 137.5h2M154 137.5h18M148 139.5h2M154 139.5h9M148 141.5h2M154 141.5h15M148 143.5h2M152 143.5h2M148 145.5h2M154 145.5h6M148 147.5h2M154 147.5h6M148 149.5h2M152 149.5h2M148 151.5h2M154 151.5h30M148 153.5h2M154 153.5h7M148 155.5h2M154 155.5h26M148 157.5h2M154 157.5h28M148 159.5h2M152 159.5h2M148 161.5h2M154 161.5h25M148 163.5h2M152 163.5h2M148 165.5h2M154 165.5h11M148 167.5h2M154 167.5h8M148 169.5h2M154 169.5h11M148 171.5h2M152 171.5h2" stroke-linecap="round"/><g transform="translate(291 45)" stroke-linecap="round" stroke-width="3"><circle cx="24.044" cy="28.197" r="6.117"/><path d="M24.254 21.199c17.71-9.625 0-20.699 0-20.699h-.129s-17.71 11.024 0 20.65"/><path d="M15.525 26.212C21.243 6.884.944 11.631.944 11.631l-.091.091s-4.756 20.29 14.574 14.574M32.352 26.212C26.634 6.884 46.933 11.631 46.933 11.631l.091.091s4.756 20.29-14.574 14.574M24.254 34.784c17.71 9.625 0 20.716 0 20.716h-.129s-17.71-11.033 0-20.658"/><path d="M15.525 29.755C21.243 49.083.944 44.336.944 44.336l-.091-.091s-4.756-20.29 14.574-14.574M32.352 29.755c-5.718 19.328 14.581 14.581 14.581 14.581l.091-.091s4.756-20.29-14.574-14.574"/></g><g transform="translate(204 1)" fill="#FFF" fill-rule="nonzero" stroke-linecap="round" stroke-width="3"><circle cx="24.044" cy="28.197" r="6.117"/><path d="M24.254 21.199c17.71-9.625 0-20.699 0-20.699h-.129s-17.71 11.024 0 20.65"/><path d="M15.525 26.212C21.243 6.884.944 11.631.944 11.631l-.091.091s-4.756 20.29 14.574 14.574M32.352 26.212C26.634 6.884 46.933 11.631 46.933 11.631l.091.091s4.756 20.29-14.574 14.574M24.254 34.784c17.71 9.625 0 20.716 0 20.716h-.129s-17.71-11.033 0-20.658"/><path d="M15.525 29.755C21.243 49.083.944 44.336.944 44.336l-.091-.091s-4.756-20.29 14.574-14.574M32.352 29.755c-5.718 19.328 14.581 14.581 14.581 14.581l.091-.091s4.756-20.29-14.574-14.574"/></g><g transform="translate(188 21)" fill="#FFF" fill-rule="nonzero" stroke-linecap="round" stroke-width="3"><circle cx="24.044" cy="28.197" r="6.117"/><path d="M24.254 21.199c17.71-9.625 0-20.699 0-20.699h-.129s-17.71 11.024 0 20.65"/><path d="M15.525 26.212C21.243 6.884.944 11.631.944 11.631l-.091.091s-4.756 20.29 14.574 14.574M32.352 26.212C26.634 6.884 46.933 11.631 46.933 11.631l.091.091s4.756 20.29-14.574 14.574M24.254 34.784c17.71 9.625 0 20.716 0 20.716h-.129s-17.71-11.033 0-20.658"/><path d="M15.525 29.755C21.243 49.083.944 44.336.944 44.336l-.091-.091s-4.756-20.29 14.574-14.574M32.352 29.755c-5.718 19.328 14.581 14.581 14.581 14.581l.091-.091s4.756-20.29-14.574-14.574"/></g></g></svg>